<svg xmlns="http://www.w3.org/2000/svg" width="24" height="96" viewBox="0 -12 24 96"><path fill="#92A0B7" d="M3.25 2c.06 2.473.915 4.53 2.568 6.182C7.47 9.834 9.528 10.69 12 10.75c2.473-.06 4.529-.915 6.184-2.568C19.833 6.53 20.689 4.472 20.75 2c-.061-2.473-.916-4.53-2.566-6.182C16.529-5.835 14.471-6.69 12-6.75c-2.473.06-4.53.915-6.183 2.568C4.165-2.53 3.31-.472 3.25 2zM7.1 3.76h9.8a5.243 5.243 0 0 1-1.854 2.508c-.87.642-1.89.976-3.044.987-1.154-.013-2.175-.345-3.043-.987a5.218 5.218 0 0 1-1.856-2.51L7.1 3.76zm1.832-5.255c.725.035 1.308.582 1.308 1.307S9.657 1.12 8.932 1.12 7.648.538 7.648-.188s.56-1.272 1.284-1.307zm6.132 0c.727.035 1.287.582 1.287 1.307s-.56 1.308-1.285 1.308-1.308-.582-1.308-1.308.584-1.272 1.308-1.307h-.002zM3.75 32.59c0 .471.354.813.824.85h14.854c.469-.037.822-.379.822-.85V19.385a.804.804 0 0 0-.822-.823H4.574a.805.805 0 0 0-.824.823V32.59zm2.472-1.651v-4.117l2.47-2.471 4.144 4.12 2.471-2.47 2.473 2.47v2.473l-11.558-.005zm9.908-6.589c-.942-.033-1.624-.728-1.624-1.657 0-.458.152-.847.46-1.165.306-.32.692-.472 1.164-.472s.858.152 1.166.472c.306.317.457.707.457 1.165 0 .93-.681 1.624-1.623 1.657zM4 44.382h16V42.9h-5.02l-.891-1.19H9.933l-.89 1.19H4v1.482zm1.113 1.186l1.93 9.843c.196.989.728 1.692 1.655 1.731h6.628c.927-.039 1.46-.742 1.656-1.729l1.93-9.845H5.113zM14.894 78.788H7.807V66.451h7.085v2.644h1.745v-2.644c0-.97-.793-1.763-1.763-1.763h-7.05c-.969 0-1.762.793-1.762 1.763v12.337c0 .97.793 1.763 1.762 1.763h7.05c.97 0 1.763-.793 1.763-1.763v-1.762h-1.744v1.762h.001zm7.031-5.727l-3.507-3.438v2.115h-7.931v2.645h7.931v2.114l3.507-3.436z"/></svg>